/* XPM */
static char * digits_xpm[] = {
"60 9 3 1",
" 	c None",
".	c #D2AA5C",
"+	c #000000",
".+++.........+++...+++.........+++...+++...+++...+++...+++..",
"+...+.....+.....+.....+.+...+.+.....+.........+.+...+.+...+.",
"+...+.....+.....+.....+.+...+.+.....+.........+.+...+.+...+.",
"+...+.....+.....+.....+.+...+.+.....+.........+.+...+.+...+.",
".............+++...+++...+++...+++...+++.........+++...+++..",
"+...+.....+.+.........+.....+.....+.+...+.....+.+...+.....+.",
"+...+.....+.+.........+.....+.....+.+...+.....+.+...+.....+.",
"+...+.....+.+.........+.....+.....+.+...+.....+.+...+.....+.",
".+++.........+++...+++.........+++...+++.........+++...+++.."};
