/* XPM */
static char * pinboard_xpm[] = {
"86 64 69 1",
" 	c None",
".	c #D6FE04",
"+	c #565654",
"@	c #4E4E4C",
"#	c #362A14",
"$	c #121214",
"%	c #363634",
"&	c #6BE520",
"*	c #020204",
"=	c #60C021",
"-	c #F22E96",
";	c #AEFA04",
">	c #94D205",
",	c #9A6E2C",
"'	c #FEFEFC",
")	c #D5D5D4",
"!	c #562E1C",
"~	c #6E3A1C",
"{	c #8E421C",
"]	c #0A76EC",
"^	c #F9F14A",
"/	c #D1CA45",
"(	c #F6FE7C",
"_	c #6A6A6C",
":	c #FADA04",
"<	c #D2B705",
"[	c #FEBE04",
"}	c #D5A005",
"|	c #DEC67C",
"1	c #D6BA6C",
"2	c #6A361C",
"3	c #66311C",
"4	c #D2AA5C",
"5	c #FE821C",
"6	c #D5721D",
"7	c #FE5E1C",
"8	c #D5561D",
"9	c #4E2A1C",
"0	c #FE8E8C",
"a	c #D57B7A",
"b	c #FA0604",
"c	c #C60805",
"d	c #BF2B79",
"e	c #AD067E",
"f	c #8A0868",
"g	c #D6B66C",
"h	c #CA9E4C",
"i	c #8503C6",
"j	c #6D049D",
"k	c #2606C4",
"l	c #24089B",
"m	c #020684",
"n	c #040C54",
"o	c #D2B264",
"p	c #0B63BA",
"q	c #8A421C",
"r	c #0ACAEC",
"s	c #0CAAC6",
"t	c #0AEA74",
"u	c #0CC467",
"v	c #0EDA1C",
"w	c #10B71D",
"x	c #2E8E0C",
"y	c #2E7B0E",
"z	c #CEAA5C",
"A	c #CEA654",
"B	c #CAA254",
"C	c #C79849",
"D	c #C2A454",
".......................................................................+@#$%#+..&*=...",
"..................................................................+%*#++-----+..;*>...",
"......,,,,,,,,,,,,,,,,,,,,,,,,,,,,,,,,,,,,,,,,,,,,,,,,,,,#......$++----------%..'*)...",
"......,!!!~~~~~~~~~~~{{{!!!~~~~~~~~~!!!!~~~~~~!!!!~~~~~~~#......%---]]]]-----*..^*/...",
"......,~~~~~~!!~~~!(((((~{(((!~~~(((~~~~(((~~!~~~~{{~~{~~#......$-----*_]]]--#..:*<...",
"......,~~########!~~!(~~~(~~~(~{!(!{(~~(!~~({#########,~~#......$-----_*]]---+..[*}...",
"......,~~#||||1||1~~~({~!(~~~(~~~(223(2(332(~#44|||111,!~#......@----]]------++.5*6...",
"......,!~#|||1|111~!~(33~(!!~(~~~(222(2(333(2#44|1141|,~~#......*-----]]]]----@.7'8...",
"......,~~#|1111111~~9(33~(~~~(~!!({{~({({!!({#4411111|,~~#......++-----]]]----#.0*a...",
"......,~{#11111111~~~(!!{{(((~~~~((((!33(((33#41111111,{~#.......#--]]]]------$.b'c...",
"......,~~#41111111!!~~23333999~3~{3~~~3333333#44441111,~!#.......*---]]]]]]---%.-'d...",
"......,{{#114411111##########################144441141,!~#.......%--------]---_+e'f...",
"......,{~#1ggggg14144444114444h4444h44h4444hh444444441,{~#.......+------------@_i'j...",
"......,~~#1gggg4g1444441411444444444444444444441111114,{{#.......++-----++#*%++.k'l...",
"......,{~#1gggg444414411111144141414441414144141411111,~~#........#++$$@+.......m'n...",
"......,{2#11gg4gggo41111114111111111111111111411111111,~~#........_+............]'p...",
"......,2q#114g44ggoo4gg1111114414411144144114114111111,~~#......................r*s...",
"......,~2#11g444444444gg111ggoogg441114444411441441111,{~#.......**************.t*u...",
"......,q2#11gggg44444444444g4ooooo4o4g44444gg141141144,{~#.......*------------*.v*w...",
"......,3~#11gggoo4gggooo441g444ooooo444ggoogg141144441,~~#.......*------------*.x'y...",
"......,!2#1444gg444og4444441414444oo4444zzoogz11444444,{~#.......*--]]]*_-----*.......",
"......,!!#111444o4444zzzzz44444zz4444zzzAzAzz1z1414414,{~#.......*-----_*]]]--*.......",
"......,!q#11114444zz4zzzzzzzzzzzzzzzzAAAAz44AAA1441444,~~#.......*-----]]]]---*.......",
"......,!{#44114zzzzAA444zzzzzzAAhzzzABBAh44444zz444414,~~#.......*---]]]------*.......",
"......,!{#41444zBAAABBAA4144zhhhAAAA4hh114444414411114,~{#.......*-----]]]]---*.......",
"......,~~#444444z4AAABhAoz444444hAzAh4Ahhz414444441141,~{#.......*------]]]---*.......",
"......,~~#4144h4hhzhzzg44hhzCAC14444444414444444444111,!~#.......*--]]]]]-----*.......",
"......,{{#4444444A4zzhBAhBAz1zzz44zzDAABAzz44444444g11,~~#.......*----]]]]]]--*.......",
"......,{~#114444hhhhz44AAAAzz44A44zzzBzzzAz4444444og11,~~#.......*---------]--*.......",
"......,~~#1111444AAAhBz4AAAzzo4444z44o4zzzz4444444ogg1,{~#.......*------------*.......",
"......,{{#1111414444zzzzzzzzzzz4444z4z444AA4zAAzz44gg4,~~#.......**************.......",
"......,~~#1144141g4oo4zzzzzzzz11zzzz444444444og1goo4g1,~~#............................",
"......,~~#|||11441444zz1zzzzzzzzzzzzzzzzzzAzzzzooz4414,~~#.........#%$#@+.............",
"......,!{#114444444zzzzzzzzzAAAzzzzzzzzzzzzzzzz4zz4441,{~#........++----++#*%+........",
"......,!~#44444444zzzzzzzzAzAAA4zzzzzz444zAAzzz4zz1414,{~#........%----------++$......",
"......,!!#|1|114144zzzzzzz4zAAAA4AAzz4zgz44zzhzzoz1111,!~#........*--]]]]------%......",
"......,!~#11144444444zzAzzz4BCCB44ChA444CCChhhzzoz1111,~~#........#-----_*]]---$......",
"......,!~#444444444441zhhAhC444CCC4BCCCC4CzAAA4ozo4414,{~#........+----]*_]----$......",
"......,!~#1114444444zz4zAAAA44444444444444444zAoooo414,{{#.......++---]]-------@......",
"......,{~#444444ooo4z444zAAAABBDAC4CC4AA4BAzzAAzooo444,~~#.......@-----]]]]----*......",
"......,~~#4444444444444zzzAAABBCAA4444Dz4Azzzzzo44o414,{{#.......#------]]]---++......",
"......,!!#444go4o444444444AAABBA44ACDBD4A4z4zCz4o4g111,!~#.......$---]]]]-----#.......",
"......,{{#414444444444444414444444444BCzC4CCChA4o4g111,~!#.......+----]]]]]]--*.......",
"......,~{#4444444444444hhAh44444444zC444C444444o414414,{!#......@+---------]--%.......",
"......,~{#4414444444444zzA4444AC444444444A44444og11414,{!#......_@------------+.......",
"......,{~#144444ggo4444444zzzz4444zz44zzAhz44444g11444,~!#.......++%*#++-----++.......",
"......,~!#41144444zzzAz44444zzzzzzzzz44zzzz444z4441444,!!#.............+@$$++#........",
"......,~~#4444444hhhCzz44444o4zzzzz44144zzA44zzzz44444,{!#..................+_........",
"......,~~#44444444zAhABzz44444zzzzz44z1144z4zz4444444h,~~#............................",
"......,~{#44444444zzz44zzzzz44zzzzzzAAzzz44zzz4g414414,~!#............................",
"......,~{#144444414zz44zAzAAACCzzz44ACCzz4CzBzzg111414,~~#............................",
"......,!~#114444441zzh444444444444444444zACDAzz4111444,~~#............................",
"......,!~#444444444zAhC4CCC4444CCACC44CCCACCAA44441444,~{#............................",
"......,!~#h444444444zAA4hB44DABBBAzAAz4zzzzzzz44444444,~{#............................",
"......,~~#444411114g4zzzAAA4zzzADAAzzz44zz44444444444h,~!#............................",
"......,~~#444444444444h44444zzzC444h444h4hhh4444444h44,{!#............................",
"......,~~#hhhh44444hhhhhhh444zhhhhhh44hhhhhhh444444hh4,~!#............................",
"......,~~#4hhh44444444h44444444444444444444444h4444411,~~#............................",
"......,~!#,,,,,,,,,,,,,,,,,,,,,,,,,,,,,,,,,,,,,,,,,,,,,~~#............................",
"......,!~~!~~~~~~~~~{{{{{{{!~~~~{{{{!!!{{{{{{~{~~~~~{~~~{#............................",
"......,~~~~~{{{!!{~~~~~~!!!!!~~~~!~~~{{~~~~~~{{~{{~~~!!!{#............................",
"......,###################################################............................",
"......................................................................................",
"................................................................................-.]..."};
