/* XPM */
static char * abar_xpm[] = {
"58 28 11 1",
" 	c None",
".	c #000000",
"+	c #EFD183",
"@	c #D2AA5C",
"#	c #6E3A1C",
"$	c #878787",
"%	c #6B9600",
"&	c #AEFA04",
"*	c #FEFEFC",
"=	c #87003A",
"-	c #F73D88",
"..........................................................",
".++++++++++++++++++++++++++++++++++++++++++++++++++++++++.",
".+@@@@@@@@@@@@@@@@@@@@@@@@@@@@@@@@@@@@@@@@@@@@@@@@@@@@@@#.",
".+@@@@@@@@@@@@@@@@@@@@@@@@@@@@@@@@@@@@@@@@@@@@@@@@@@@@@@#.",
".+@@@@@@@@@@@@@@@@@@@@@@@@@@@@@@@@@@@..@@@@@@@@@@....@@@#.",
".+@@@@@@@@@@@@@@+$@@@@@@@@@@@@@@@@@@@....@@@@@@@.%%%%.@@#.",
".+@@@@@@@@@@@@@@..@@@@@@@@@@@@@@@@$........$@@@.%&&%%%.@#.",
".+@@@@@@@@@@@@@@$#@@@@@@@@@@@@@@@$.@@....@@.$@@.%&&&%%.@#.",
".+@@@@@@@@@@@@@@@@@@@@@@@@@@@@@@@.@@@..@@@@@.@@.%%&%%%.@#.",
".+@@@@@@@@@@@@@@+$@@@@@@@@@@@@@@@.@@@@@@@@@@.@@.%%%%%%.@#.",
".+@@@@@@@@@@@@@@..@@@@@@@@@@@@@@@$.@@@@@@@@.$@@@.%%%%.@@#.",
".+@@@@@@@@@@@@@@$#@@@@@@@@@@@@@@@@$........$@@@@@....@@@#.",
".+@@@@@@@@@@@@@@@@@@@@@@@@@@@@@@@@@@@@@@@@@@@@@@@@@@@@@@#.",
".+@@@@@@@@@@@@@@@@@@@@@@@@@@@@@@@@@@@@@@@@@@@@@@@@@@@@@@#.",
".+@@@@@@@@@@@@@@@@@@@@@@@@@@@@@@@@...........@@@@@@@@@@@#.",
".+@@@@@@@@@@@@@@@@@@@@@@@@@@@@@@@@...........@@@@@@@@@@@#.",
".+@@@@@@@@@@@@@@@@@@@@@@@@@@@@@@@@.$$$$$$$$..@@@@....@@@#.",
".+@@@@@@@@@@@@@@@@@@@@@@@@@@@@@@@@.***==***..@@@.====.@@#.",
".+@@@@@@@@@@@@@@+$@@@@@@@@@@@@@@@@.**===***..@@.=--===.@#.",
".+@@@@@@@@@@@@@@..@@@@@@@@@@@@@@@@.***==***..@@.=---==.@#.",
".+@@@@@@@@@@@@@@$#@@@@@@@@@@@@@@@@.***==***..@@.==-===.@#.",
".+@@@@@@@@@@@@@@@@@@@@@@@@@@@@@@@@.***==***..@@.======.@#.",
".+@@@@@@@@@@@@@@@@@@@@@@@@@@@@@@@.********...@@@.====.@@#.",
".+@@@@@@@@@@@@@@@@@@@@@@@@@@@@@@@...........@@@@@....@@@#.",
".+@@@@@@@@@@@@@@@@@@@@@@@@@@@@@@@...........@@@@@@@@@@@@#.",
".+@@@@@@@@@@@@@@@@@@@@@@@@@@@@@@@@@@@@@@@@@@@@@@@@@@@@@@#.",
".########################################################.",
".........................................................."};
