/* XPM */
static char * bbar_xpm[] = {
"58 30 23 1",
" 	c None",
".	c #000000",
"+	c #EFD183",
"@	c #6E3A1C",
"#	c #D2AA5C",
"$	c #FA0604",
"%	c #7F6602",
"&	c #FF0569",
"*	c #FFFFFF",
"=	c #FADA04",
"-	c #AEFA04",
";	c #6B9600",
">	c #F48989",
",	c #C16C6C",
"'	c #894E4E",
")	c #F73D88",
"!	c #87003A",
"~	c #9E0EDC",
"{	c #FE821C",
"]	c #62A6EF",
"^	c #3E6599",
"/	c #2A4668",
"(	c #F2EE04",
"..........................................................",
".+++++++++++++@+++++++++++++@+++++++++++++@++++++++++++++.",
".+############@+############@+############@+############@.",
".+####...@$###@+####%.%#####@+##########&#@+#.....#....#@.",
".+##..*.*.&$##@+####.=.#####@+###.###.#&&#@+#.---.#.;-.#@.",
".+##.**.**.@##@+###%=.######@+##.#.##.&&##@+#.---.#.--.#@.",
".+#.***.***.##@+###.=%##..##@+#.###.#&&###@+#.--;.#.--.#@.",
".+#.***.***.##@+##%=.##.##.#@+#.###.&&..##@+#....##.--.#@.",
".+#.**.****.##@+##.=%#.####.@+#....&&.##.#@+######.;--.#@.",
".+##.*****.###@+#%=.##.####.@+#.##&&#.##.#@+#....#.;--.#@.",
".+##..***..###@+#.=%###.##.#@+#.#&&.#.##.#@+#.-;.##.--.#@.",
".+##%.....%###@+#..#####..##@+#.&&#.#...##@+#.--;.#.;-.#@.",
".+#...%#%...##@+#.......##.#@+#&&#########@+#.....##...#@.",
".+############@+###########.@+############@+############@.",
".@@@@@@@@@@@@@@@@@@@@@@@@@@@@@@@@@@@@@@@@@@@@@@@@@@@@@@@@.",
".+++++++++++++@+++++++++++++@+++++++++++++@++++++++++++++.",
".+############@+####>>>>>>##@+############@+############@.",
".+#-###......#@+###>,,,,,,'#@+#&#...######@+##########)#@.",
".+#--###.....#@+###>,,,,,,'#@+#&&###.#####@+#########)!#@.",
".+#~--###....#@+###>,,,,,,'#@+#.&&###.####@+########)!##@.",
".+#~~--#.....#@+##>,,,,,,'##@+#.#&&#..####@+########)###@.",
".+#$~~-...#..#@+##>,,,,,,'##@+#.##&&&.####@+#######)!###@.",
".+#$$~...###.#@+##>,,,,,,'##@+##.#.#&&####@+#))###))####@.",
".+#{$...--####@+##]^^,,,,'##@+###...#&&###@+#))))))!####@.",
".+#{{..~~--###@+#]^^^^^^/###@+###.####&&##@+###)))!#####@.",
".+#({{$$~~--##@+#]^^^^^^/###@+##.######&&#@+####))!#####@.",
".+#(({{$$~~--#@+#]^^^^^^/###@+##........&#@+#####!######@.",
".+############@+##//////####@+############@+############@.",
".@@@@@@@@@@@@@@@@@@@@@@@@@@@@@@@@@@@@@@@@@@@@@@@@@@@@@@@@.",
".........................................................."};
